<?xml version="1.0" encoding="UTF-8" standalone="no"?>
<!-- Created with Inkscape (http://www.inkscape.org/) -->

<svg
   width="1200"
   height="1200"
   viewBox="0 0 317.49999 317.5"
   version="1.1"
   id="svg729"
   inkscape:version="1.2.2 (b0a84865, 2022-12-01)"
   sodipodi:docname="logo3.svg"
   xmlns:inkscape="http://www.inkscape.org/namespaces/inkscape"
   xmlns:sodipodi="http://sodipodi.sourceforge.net/DTD/sodipodi-0.dtd"
   xmlns="http://www.w3.org/2000/svg"
   xmlns:svg="http://www.w3.org/2000/svg">
  <sodipodi:namedview
     id="namedview731"
     pagecolor="#858585"
     bordercolor="#000000"
     borderopacity="0.25"
     inkscape:showpageshadow="false"
     inkscape:pageopacity="0"
     inkscape:pagecheckerboard="true"
     inkscape:deskcolor="#d1d1d1"
     inkscape:document-units="mm"
     showgrid="false"
     showborder="false"
     borderlayer="false"
     showguides="true"
     inkscape:zoom="0.2392172"
     inkscape:cx="-687.65957"
     inkscape:cy="802.61786"
     inkscape:window-width="1728"
     inkscape:window-height="1002"
     inkscape:window-x="1081"
     inkscape:window-y="38"
     inkscape:window-maximized="0"
     inkscape:current-layer="layer1" />
  <defs
     id="defs726">
    <inkscape:path-effect
       effect="fillet_chamfer"
       id="path-effect1561"
       is_visible="true"
       lpeversion="1"
       nodesatellites_param="F,0,0,1,0,3.96875,0,1 @ F,0,0,1,0,3.96875,0,1 @ F,0,0,1,0,3.96875,0,1 @ F,0,0,1,0,3.96875,0,1 @ F,0,0,1,0,3.96875,0,1 @ F,0,0,1,0,3.96875,0,1 @ F,0,0,1,0,3.96875,0,1 @ F,0,0,1,0,3.96875,0,1 @ F,0,0,1,0,3.96875,0,1 @ F,0,0,1,0,3.96875,0,1 @ F,0,0,1,0,3.96875,0,1 @ F,0,0,1,0,3.96875,0,1 @ F,0,0,1,0,3.96875,0,1 @ F,0,0,1,0,3.96875,0,1 @ F,0,0,1,0,3.96875,0,1 @ F,0,0,1,0,3.96875,0,1"
       unit="px"
       method="auto"
       mode="F"
       radius="15"
       chamfer_steps="1"
       flexible="false"
       use_knot_distance="true"
       apply_no_radius="true"
       apply_with_radius="true"
       only_selected="false"
       hide_knots="false" />
    <inkscape:path-effect
       effect="fillet_chamfer"
       id="path-effect1557"
       is_visible="true"
       lpeversion="1"
       nodesatellites_param="F,0,0,1,0,2.6458333,0,1 @ F,0,0,1,0,2.6458333,0,1 @ F,0,0,1,0,2.6458333,0,1 @ F,0,0,1,0,2.6458333,0,1 @ F,0,0,1,0,2.6458333,0,1 @ F,0,0,1,0,2.6458333,0,1 @ F,0,0,1,0,2.6458333,0,1 @ F,0,0,1,0,2.6458333,0,1 @ F,0,0,1,0,2.6458333,0,1 @ F,0,0,1,0,13.229167,0,1 @ F,0,0,1,0,2.6458333,0,1 @ F,0,0,1,0,2.6458333,0,1 @ F,0,0,1,0,2.6458333,0,1 @ F,0,0,1,0,2.6458333,0,1 @ F,0,0,1,0,2.6458333,0,1 @ F,0,0,1,0,2.6458333,0,1 @ F,0,0,1,0,2.6458333,0,1 @ F,0,1,1,0,13.229167,0,1"
       unit="px"
       method="auto"
       mode="F"
       radius="50"
       chamfer_steps="1"
       flexible="false"
       use_knot_distance="true"
       apply_no_radius="true"
       apply_with_radius="true"
       only_selected="true"
       hide_knots="false" />
    <inkscape:path-effect
       effect="fillet_chamfer"
       id="path-effect1413"
       is_visible="true"
       lpeversion="1"
       nodesatellites_param="F,0,0,1,0,3.96875,0,1 @ F,0,0,1,0,3.96875,0,1 @ F,0,0,1,0,3.96875,0,1 @ F,0,0,1,0,3.96875,0,1 @ F,0,0,1,0,3.96875,0,1 @ F,0,0,1,0,3.96875,0,1 @ F,0,0,1,0,3.96875,0,1 @ F,0,0,1,0,3.96875,0,1 @ F,0,0,1,0,3.96875,0,1 @ F,0,0,1,0,3.96875,0,1 @ F,0,0,1,0,3.96875,0,1 @ F,0,0,1,0,3.96875,0,1 @ F,0,0,1,0,3.96875,0,1 @ F,0,0,1,0,3.96875,0,1 @ F,0,0,1,0,3.96875,0,1 @ F,0,0,1,0,3.96875,0,1"
       unit="px"
       method="auto"
       mode="F"
       radius="15"
       chamfer_steps="1"
       flexible="false"
       use_knot_distance="true"
       apply_no_radius="true"
       apply_with_radius="true"
       only_selected="false"
       hide_knots="false" />
    <inkscape:path-effect
       effect="fillet_chamfer"
       id="path-effect1409"
       is_visible="true"
       lpeversion="1"
       nodesatellites_param="F,0,1,1,0,2.6458333,0,1 @ F,0,1,1,0,2.6458333,0,1 @ F,0,1,1,0,2.6458333,0,1 @ F,0,1,1,0,2.6458333,0,1 @ F,0,1,1,0,2.6458333,0,1 @ F,0,1,1,0,2.6458333,0,1 @ F,0,1,1,0,2.6458333,0,1 @ F,0,1,1,0,2.6458333,0,1 @ F,0,1,1,0,2.6458333,0,1 @ F,0,1,1,0,13.229167,0,1 @ F,0,1,1,0,13.229167,0,1 @ F,0,1,1,0,2.6458333,0,1 @ F,0,1,1,0,2.6458333,0,1 @ F,0,1,1,0,2.6458333,0,1 @ F,0,1,1,0,2.6458333,0,1 @ F,0,1,1,0,2.6458333,0,1 @ F,0,1,1,0,2.6458333,0,1 @ F,0,1,1,0,2.6458333,0,1 @ F,0,1,1,0,13.229167,0,1 @ F,0,0,1,0,13.229167,0,1"
       unit="px"
       method="auto"
       mode="F"
       radius="50"
       chamfer_steps="1"
       flexible="false"
       use_knot_distance="true"
       apply_no_radius="true"
       apply_with_radius="true"
       only_selected="true"
       hide_knots="false" />
    <inkscape:path-effect
       effect="fillet_chamfer"
       id="path-effect1334"
       is_visible="true"
       lpeversion="1"
       nodesatellites_param="F,0,0,1,0,2.6458333,0,1 @ F,0,0,1,0,2.6458333,0,1 @ F,0,0,1,0,2.6458333,0,1 @ F,0,0,1,0,2.6458333,0,1 @ F,0,0,1,0,2.6458333,0,1 @ F,0,0,1,0,2.6458333,0,1 @ F,0,0,1,0,2.6458333,0,1 @ F,0,0,1,0,2.6458333,0,1 @ F,0,0,1,0,2.6458333,0,1 @ F,0,0,1,0,6.6145833,0,1 @ F,0,0,1,0,2.6458333,0,1 @ F,0,0,1,0,2.6458333,0,1 @ F,0,0,1,0,2.6458333,0,1 @ F,0,0,1,0,2.6458333,0,1 @ F,0,0,1,0,2.6458333,0,1 @ F,0,0,1,0,2.6458333,0,1 @ F,0,0,1,0,2.6458333,0,1 @ F,0,1,1,0,6.6145833,0,1"
       unit="px"
       method="auto"
       mode="F"
       radius="25"
       chamfer_steps="1"
       flexible="false"
       use_knot_distance="true"
       apply_no_radius="true"
       apply_with_radius="true"
       only_selected="true"
       hide_knots="false" />
    <inkscape:path-effect
       effect="fillet_chamfer"
       id="path-effect1331"
       is_visible="true"
       lpeversion="1"
       nodesatellites_param="F,0,0,1,0,3.96875,0,1 @ F,0,0,1,0,3.96875,0,1 @ F,0,0,1,0,3.96875,0,1 @ F,0,0,1,0,3.96875,0,1 @ F,0,0,1,0,3.96875,0,1 @ F,0,0,1,0,3.96875,0,1 @ F,0,0,1,0,3.96875,0,1 @ F,0,0,1,0,3.96875,0,1 @ F,0,0,1,0,3.96875,0,1 @ F,0,0,1,0,3.96875,0,1 @ F,0,0,1,0,3.96875,0,1 @ F,0,0,1,0,3.96875,0,1 @ F,0,0,1,0,3.96875,0,1 @ F,0,0,1,0,3.96875,0,1 @ F,0,0,1,0,3.96875,0,1 @ F,0,0,1,0,3.96875,0,1"
       unit="px"
       method="auto"
       mode="F"
       radius="15"
       chamfer_steps="1"
       flexible="false"
       use_knot_distance="true"
       apply_no_radius="true"
       apply_with_radius="true"
       only_selected="false"
       hide_knots="false" />
  </defs>
  <g
     inkscape:label="Layer 1"
     inkscape:groupmode="layer"
     id="layer1">
    <path
       id="path1367"
       style="fill:#ada67c;fill-opacity:0.996078;stroke:#000000;stroke-width:0.529167;stroke-linecap:round;stroke-linejoin:round;stroke-dasharray:none;stroke-opacity:1;paint-order:markers fill stroke"
       d="m -317.15849,-245.54153 c -4.08747,-2e-5 -8.07821,0.41419 -11.93252,1.20289 -3.85431,0.7887 -7.5722,1.95191 -11.11399,3.44996 -3.54178,1.49806 -6.90746,3.33094 -10.05735,5.45896 -3.14991,2.12803 -6.08402,4.5512 -8.76266,7.22985 -2.67865,2.67865 -5.10183,5.61276 -7.22985,8.76265 -2.12803,3.1499 -3.96091,6.51559 -5.45896,10.05737 -1.49805,3.54179 -2.66127,7.25968 -3.44997,11.11399 -0.78871,3.85431 -1.2029,7.84505 -1.2029,11.93252 0,4.08747 0.41419,8.07821 1.2029,11.93252 0.7887,3.85431 1.95192,7.57222 3.44997,11.114 1.49805,3.54178 3.33093,6.90747 5.45896,10.05737 2.12802,3.14989 4.5512,6.084 7.22985,8.76265 2.67864,2.67865 5.61275,5.10182 8.76266,7.22985 3.14989,2.12804 6.51557,3.96092 10.05735,5.45896 3.54179,1.49805 7.25968,2.66126 11.11399,3.44998 3.85431,0.7887 7.84505,1.20289 11.93252,1.20289 4.08747,0 8.07821,-0.41421 11.93252,-1.20291 3.85432,-0.78871 7.57221,-1.95193 11.11399,-3.44997 3.5418,-1.49805 6.90747,-3.33093 10.05738,-5.45896 3.14988,-2.12803 6.084,-4.5512 8.76264,-7.22984 2.67865,-2.67865 5.10182,-5.61276 7.22986,-8.76267 2.12803,-3.14989 3.96091,-6.51557 5.45895,-10.05735 1.49805,-3.5418 2.66127,-7.25969 3.44998,-11.114 0.55264,-2.7007 0.92139,-5.46836 1.09264,-8.28936 0.0732,-1.20502 0.11024,-2.41975 0.11024,-3.64316 0,-1.77698 -0.0783,-3.5357 -0.23158,-5.27286 -0.19934,-2.2587 -0.5255,-4.48097 -0.97133,-6.65966 -0.7887,-3.85431 -1.95191,-7.5722 -3.44997,-11.11399 -1.49805,-3.54178 -3.33093,-6.90747 -5.45896,-10.05737 -2.12802,-3.14989 -4.55121,-6.084 -7.22984,-8.76265 -2.67865,-2.67865 -5.61276,-5.10182 -8.76266,-7.22985 -3.14989,-2.12802 -6.51558,-3.9609 -10.05736,-5.45896 -3.54178,-1.49805 -7.25968,-2.66126 -11.11399,-3.44996 -3.85431,-0.7887 -7.84505,-1.20291 -11.93252,-1.20289 z m 0,11.70116 c 3.26997,0 6.46255,0.33235 9.546,0.96519 3.08344,0.63284 6.05774,1.56618 8.89116,2.76817 2.83343,1.202 5.52596,2.67265 8.04587,4.38013 2.51991,1.70746 4.86719,3.65175 7.0101,5.80103 2.1429,2.14926 4.08145,4.50352 5.78386,7.0309 1.70241,2.52739 3.16872,5.22792 4.36715,8.06975 1.19843,2.84184 2.12901,5.82496 2.75998,8.91755 0.26168,1.28267 0.47184,2.58417 0.62819,3.90224 0.22062,1.85984 0.33412,3.75267 0.33412,5.67207 0,1.34806 -0.056,2.683 -0.16575,4.00261 -0.15727,1.89087 -0.42496,3.75028 -0.79658,5.5717 -0.63096,3.09259 -1.56153,6.07573 -2.75996,8.91756 -1.19844,2.84182 -2.66474,5.54236 -4.36716,8.06975 -1.70241,2.52739 -3.64095,4.88164 -5.78386,7.0309 -2.1429,2.14928 -4.49018,4.09357 -7.0101,5.80103 -2.51991,1.70748 -5.21245,3.17813 -8.04586,4.38012 -2.83342,1.202 -5.80772,2.13534 -8.89116,2.76818 -3.08345,0.63284 -6.27603,0.96519 -9.546,0.96519 -3.26996,0 -6.46255,-0.33235 -9.54598,-0.96519 -3.08345,-0.63284 -6.05776,-1.56618 -8.89118,-2.76818 -2.83341,-1.20199 -5.52595,-2.67264 -8.04586,-4.38012 -2.51991,-1.70746 -4.86718,-3.65175 -7.0101,-5.80103 -2.14291,-2.14926 -4.08145,-4.50351 -5.78386,-7.0309 -1.70242,-2.52739 -3.16872,-5.22793 -4.36714,-8.06975 -1.19844,-2.84183 -2.12902,-5.82497 -2.75998,-8.91756 -0.63096,-3.09259 -0.96231,-6.29463 -0.96231,-9.57431 0,-3.27967 0.33135,-6.48172 0.96231,-9.57431 0.63096,-3.09259 1.56154,-6.07571 2.75996,-8.91755 1.19844,-2.84183 2.66474,-5.54236 4.36716,-8.06975 1.70241,-2.52738 3.64095,-4.88164 5.78386,-7.0309 2.14292,-2.14928 4.49019,-4.09357 7.0101,-5.80103 2.51991,-1.70748 5.21245,-3.17813 8.04586,-4.38013 2.83342,-1.20199 5.80773,-2.13533 8.89118,-2.76817 3.08343,-0.63284 6.27602,-0.96519 9.54598,-0.96519 z"
       sodipodi:nodetypes="cssssssscsssssssssssssssssssssssssccssssssssssssssssscssssssscsssssssc" />
    <path
       style="fill:#ffffff;fill-opacity:0.996078;stroke:#000000;stroke-width:0.391326;stroke-linecap:round;stroke-linejoin:round;paint-order:markers fill stroke"
       d="m -303.94774,296.40397 v -1.14036 -22.24079 c -3.91496,-0.30863 -7.76347,-0.85382 -11.52965,-1.62679 -6.14726,-1.26166 -12.07692,-3.12282 -17.72572,-5.51917 -5.64882,-2.39633 -11.01703,-5.32816 -16.04082,-8.73222 -5.02377,-3.40408 -9.70328,-7.28044 -13.97545,-11.56531 -4.27218,-4.28485 -8.13712,-8.97828 -11.53112,-14.01696 -3.394,-5.0387 -6.3171,-10.42263 -8.70634,-16.08819 -2.38925,-5.66558 -4.24466,-11.61298 -5.50256,-17.77846 -0.86054,-4.21781 -1.43404,-8.53945 -1.71519,-12.94107 h -23.65367 c 0.30827,6.01065 1.06559,11.90254 2.2402,17.64269 1.57239,7.68408 3.89177,15.09623 6.87833,22.15728 2.98656,7.06102 6.64053,13.77114 10.88304,20.05088 4.24251,6.27976 9.07329,12.12909 14.41353,17.46932 5.34024,5.34025 11.19007,10.17151 17.46981,14.41403 6.27975,4.2425 12.98987,7.89647 20.0509,10.88304 7.06102,2.98656 14.47319,5.30546 22.15727,6.87784 5.3073,1.08603 10.74673,1.80664 16.28744,2.15424 z"
       id="path1435" />
    <path
       style="fill:#ffffff;fill-opacity:0.996078;stroke:#000000;stroke-width:0.41407;stroke-linecap:round;stroke-linejoin:round;paint-order:markers fill stroke"
       d="m -129.45873,246.13072 h -31.15748 c -3.95479,26.14548 -8.63231,40.09185 -22.91002,60.63688 -20.26634,16.18945 -39.57822,24.62137 -62.71659,26.49998 v 21.85752 9.14414 c 5.86275,-0.3678 11.61832,-1.13029 17.23409,-2.27945 8.1307,-1.66377 15.97366,-4.11744 23.44508,-7.27759 7.47142,-3.16015 14.57153,-7.02649 21.21628,-11.51557 6.64472,-4.4891 12.83456,-9.60116 18.48517,-15.25179 5.65063,-5.65061 10.76217,-11.83991 15.25127,-18.48466 4.48908,-6.64472 8.35543,-13.74485 11.51558,-21.21627 3.16013,-7.47144 5.61434,-15.31439 7.2781,-23.44508 1.1658,-5.69714 1.94354,-11.53537 2.30477,-17.48627 0.0238,-0.39239 0.0336,-0.78849 0.0537,-1.18184 z"
       id="path1431"
       sodipodi:nodetypes="ccccccsssssssssc" />
    <path
       id="path1506"
       style="fill:#ada67c;fill-opacity:0.996078;stroke:#000000;stroke-width:0.529167;stroke-linecap:round;stroke-linejoin:round;stroke-dasharray:none;stroke-opacity:1;paint-order:markers fill stroke"
       d="M 158.75,117.40979 A 41.340511,41.340511 0 0 0 117.40937,158.74966 41.340511,41.340511 0 0 0 158.75,200.09021 41.340511,41.340511 0 0 0 200.09063,158.74966 41.340511,41.340511 0 0 0 158.75,117.40979 Z m 0,13.49212 A 27.848324,27.848324 0 0 1 186.59843,158.74966 27.848324,27.848324 0 0 1 158.75,186.59801 27.848324,27.848324 0 0 1 130.90157,158.74966 27.848324,27.848324 0 0 1 158.75,130.90191 Z"
       inkscape:label="current" />
    <g
       id="g1448"
       inkscape:label="broken"
       transform="matrix(0.99571385,0,0,0.99571385,-810.4886,-239.55655)"
       style="stroke-width:4.25156;stroke-dasharray:none">
      <path
         style="fill:#ffffff;fill-opacity:0.996078;stroke:#000000;stroke-width:4.25156;stroke-linecap:round;stroke-linejoin:round;stroke-dasharray:none;paint-order:markers fill stroke"
         d="m 485.39844,139.14925 c 2.619,0.20646 5.26563,0.3147 7.9375,0.31471 2.67188,-10e-6 5.3185,-0.10825 7.9375,-0.31471 V 65.058676 a 10.495048,10.495048 0 0 1 2.6262,-6.94479 l 5.24877,-5.94745 a 1.7907638,1.7907638 0 0 0 -1.34255,-2.97604 h -9.21959 -9.21908 -9.21908 -1.28209 a 1.7907638,1.7907638 0 0 0 -1.34255,2.97604 l 5.24877,5.94745 a 10.495048,10.495048 0 0 1 2.6262,6.94479 z"
         id="path1441" />
      <path
         style="fill:#ffffff;fill-opacity:0.996078;stroke:#000000;stroke-width:4.25156;stroke-linecap:round;stroke-linejoin:round;stroke-dasharray:none;paint-order:markers fill stroke"
         d="m 393.63092,45.750816 h 23.58202 39.51438 39.51439 39.51438 39.51438 17.75654 c 0.13762,-2.152 0.22893,-4.31662 0.22893,-6.50348 0,-2.05838 -0.063,-4.10215 -0.185,-6.12986 h -23.09213 -39.51439 -39.51438 -39.51438 -39.51438 -18.31362 c -0.12203,2.02826 -0.19171,4.07083 -0.19171,6.12986 0,2.18556 0.0776,4.35276 0.21497,6.50348 z"
         id="path1439" />
      <path
         style="fill:#ffffff;fill-opacity:0.996078;stroke:#000000;stroke-width:4.25156;stroke-linecap:round;stroke-linejoin:round;stroke-dasharray:none;paint-order:markers fill stroke"
         d="m 368.60247,45.750816 c -0.11046,-2.15387 -0.16691,-4.32212 -0.16691,-6.50348 0,-2.29304 0.0661,-4.57054 0.1881,-6.83318 l -24.7928,-2.71301 c -1.45258,-0.15895 -2.62646,0.89684 -2.67477,2.35696 -0.45756,13.827 -4.30578,27.65368 -5.35472,41.48067 -0.27627,3.64179 1.5008,4.22937 3.67678,1.29501 l 19.99,-26.95752 a 5.2559517,5.2559517 0 0 1 4.22196,-2.12545 z"
         id="path1437" />
      <path
         style="fill:#ffffff;fill-opacity:0.996078;stroke:#000000;stroke-width:4.25156;stroke-linecap:round;stroke-linejoin:round;stroke-dasharray:none;paint-order:markers fill stroke"
         d="m 501.27344,163.88934 c -2.62554,0.16471 -5.27043,0.25838 -7.9375,0.25838 -2.66707,0 -5.31196,-0.0937 -7.9375,-0.25838 v 47.73404 a 10.846415,10.846415 0 0 1 -2.5616,7.0006 l -5.37797,6.36499 a 1.8424185,1.8424185 0 0 0 1.40715,3.03186 h 9.21959 9.21908 9.21908 1.28209 a 1.8424185,1.8424185 0 0 0 1.40715,-3.03186 l -5.37797,-6.36499 a 10.846415,10.846415 0 0 1 -2.5616,-7.0006 z"
         id="path1433" />
      <path
         style="fill:#ffffff;fill-opacity:0.996078;stroke:#000000;stroke-width:4.25156;stroke-linecap:round;stroke-linejoin:round;stroke-dasharray:none;paint-order:markers fill stroke"
         d="m 618.04771,32.460666 c 0.12033,2.24768 0.18862,4.50902 0.18862,6.78667 0,2.18241 -0.0682,4.34855 -0.1788,6.50348 h 4.92941 a 5.3192261,5.3192261 0 0 1 4.24212,2.10994 l 20.43389,27.01076 c 2.20399,2.91338 4.00449,2.30865 3.70314,-1.33067 -1.14495,-13.82749 -5.34653,-27.65474 -5.84616,-41.48222 -0.0528,-1.46022 -1.22607,-2.51474 -2.67839,-2.35335 z"
         id="path1429" />
    </g>
    <path
       id="path1370"
       style="fill:#ada67c;fill-opacity:0.996078;stroke:#000000;stroke-width:0.199305;stroke-linecap:round;stroke-linejoin:round;stroke-opacity:1;paint-order:markers fill stroke"
       d="m -313.97159,-306.43572 c -8.62257,-10e-6 -17.04107,0.87374 -25.17179,2.53752 -8.13071,1.66378 -15.97365,4.1176 -23.44509,7.27775 -7.47143,3.16015 -14.57138,7.02663 -21.21612,11.51573 -6.64475,4.4891 -12.83429,9.60082 -18.48492,15.25146 -5.65064,5.65062 -10.76236,11.84017 -15.25146,18.48491 -4.4891,6.64475 -8.35558,13.74469 -11.51573,21.21613 -3.16015,7.47144 -5.61397,15.31437 -7.27775,23.44509 -1.66379,8.13072 -2.53753,16.54922 -2.53753,25.17179 0,8.62257 0.87374,17.04107 2.53753,25.17179 1.66378,8.13071 4.1176,15.97365 7.27775,23.44509 3.16015,7.47144 7.02663,14.57138 11.51573,21.21613 4.4891,6.64474 9.60082,12.834283 15.25146,18.484923 5.65063,5.65063 11.84017,10.76235 18.48491,15.25145 6.64475,4.4891 13.74469,8.35558 21.21613,11.51573 7.47144,3.16015 15.31438,5.61397 23.44509,7.27776 8.13072,1.66378 16.54922,2.53752 25.17179,2.53752 8.62257,0 17.04107,-0.87375 25.17179,-2.53754 8.13072,-1.66379 15.97365,-4.11761 23.44509,-7.27776 7.47144,-3.16015 14.57138,-7.02663 21.21613,-11.51573 6.64474,-4.4891 12.83429,-9.60082 18.48492,-15.25145 5.65063,-5.65063 10.76235,-11.840173 15.25145,-18.484923 4.4891,-6.64474 8.35558,-13.74468 11.51573,-21.21612 3.16015,-7.47144 5.61398,-15.31437 7.27776,-23.44508 1.1658,-5.69714 1.94371,-11.53558 2.30494,-17.4865 0.15431,-2.54199 0.23258,-5.1045 0.23258,-7.68529 0,-3.74858 -0.16514,-7.4586 -0.48854,-11.12317 -0.42049,-4.76474 -1.10853,-9.45266 -2.049,-14.04862 -1.66379,-8.13072 -4.11761,-15.97365 -7.27776,-23.44509 -3.16015,-7.47144 -7.02663,-14.57138 -11.51573,-21.21613 -4.4891,-6.64474 -9.60082,-12.83429 -15.25145,-18.48492 -5.65063,-5.65063 -11.84017,-10.76235 -18.48492,-15.25145 -6.64474,-4.4891 -13.74468,-8.35558 -21.21612,-11.51573 -7.47144,-3.16015 -15.31437,-5.61397 -23.44508,-7.27775 -8.13072,-1.66378 -16.54922,-2.53753 -25.17179,-2.53752 z m 0,24.68376 c 6.89804,10e-6 13.63282,0.70109 20.13738,2.03607 6.50455,1.33498 12.77888,3.30387 18.75601,5.83949 5.97714,2.53563 11.65708,5.63799 16.97286,9.23992 5.31578,3.60193 10.26739,7.70343 14.78788,12.23734 4.52049,4.53391 8.60986,9.50023 12.20112,14.83178 3.59127,5.33156 6.68445,11.02836 9.21256,17.02323 2.52811,5.99487 4.49116,12.28781 5.82218,18.81167 0.55205,2.70581 0.99538,5.45135 1.3252,8.23181 0.4654,3.92338 0.70481,7.9163 0.70481,11.96531 0,2.84374 -0.1181,5.65981 -0.34963,8.44356 -0.33177,3.9888 -0.89646,7.91123 -1.68039,11.75356 -1.33102,6.52385 -3.29408,12.8168 -5.82219,18.81167 -2.52812,5.99487 -5.62129,11.69167 -9.21256,17.02322 -3.59126,5.33156 -7.68062,10.29787 -12.20111,14.83178 -4.52049,4.53391 -9.47211,8.63542 -14.78789,12.237353 -5.31577,3.60193 -10.99571,6.70429 -16.97284,9.23991 -5.97713,2.53563 -12.25146,4.50451 -18.75601,5.8395 -6.50456,1.33498 -13.23934,2.03606 -20.13738,2.03607 -6.89804,-10e-6 -13.63282,-0.70109 -20.13738,-2.03607 -6.50455,-1.33499 -12.77888,-3.30387 -18.75601,-5.8395 -5.97714,-2.53562 -11.65708,-5.63798 -16.97286,-9.23991 -5.31577,-3.601933 -10.26739,-7.703443 -14.78788,-12.237353 -4.52049,-4.53391 -8.60985,-9.50022 -12.20112,-14.83178 -3.59127,-5.33155 -6.68444,-11.02835 -9.21255,-17.02322 -2.52812,-5.99487 -4.49117,-12.28782 -5.82219,-18.81167 -1.33102,-6.52385 -2.03001,-13.27861 -2.03001,-20.19712 0,-6.91851 0.69899,-13.67327 2.03001,-20.19712 1.33102,-6.52386 3.29407,-12.8168 5.82218,-18.81167 2.52812,-5.99487 5.62129,-11.69167 9.21256,-17.02323 3.59126,-5.33155 7.68063,-10.29787 12.20112,-14.83178 4.52049,-4.53391 9.47211,-8.63541 14.78788,-12.23734 5.31578,-3.60193 10.99572,-6.70429 16.97286,-9.23992 5.97713,-2.53562 12.25146,-4.50451 18.75601,-5.83949 6.50456,-1.33498 13.23934,-2.03606 20.13738,-2.03607 z"
       sodipodi:nodetypes="cssssssscsssssssssssssssssssssssssccssssssssssssssssscssssssscsssssssc" />
    <g
       id="g1452"
       inkscape:label="t"
       transform="matrix(1.5481761,0,0,1.5481761,-636.15787,-8.6851027)"
       style="fill:#ada67c;fill-opacity:0.996078;stroke:#000000;stroke-width:0.529167;stroke-dasharray:none;stroke-opacity:1">
      <path
         id="path1403"
         style="fill:#ada67c;fill-opacity:0.996078;stroke:#000000;stroke-width:0.529167;stroke-linecap:round;stroke-linejoin:round;stroke-dasharray:none;stroke-opacity:1;paint-order:markers fill stroke"
         d="m 414.57922,7.7625212 14.82363,4.9412108 a 16.304361,16.304361 9.2174736 0 0 5.15589,0.836686 h 21.52246 15.21835 39.51444 39.51443 15.20873 26.79481 a 16.304361,16.304361 170.78253 0 0 5.15589,-0.836686 l 14.82363,-4.9412108 c 1.38627,-0.4620889 2.71672,0.4607451 2.04538,1.7438241 -2.1634,4.1344817 -6.45767,9.7907227 -4.4209,16.7981167 1.5748,5.41799 3.46796,11.520916 4.96223,16.966931 1.92889,7.029986 0.18293,7.525985 -2.7607,0.838937 l -9.47911,-21.533734 a 4.0555282,4.0555282 33.120496 0 0 -3.71181,-2.421594 l -28.11776,0 h -15.20873 -39.51443 -39.51444 -15.21835 -33.42868 a 4.0555282,4.0555282 146.8795 0 0 -3.71181,2.421594 l -9.47911,21.533734 c -2.94363,6.687048 -4.68772,6.190629 -2.74839,-0.836477 1.48827,-5.392721 3.36913,-11.424732 4.93703,-16.789585 2.04697,-7.004045 -4.85273,-13.791807 -4.87267,-19.5154011 -8e-5,-0.023878 1.12372,0.3315654 2.50999,0.7936543 z"
         sodipodi:nodetypes="cccccccccscccccccccsc"
         inkscape:label="TOP"
         inkscape:original-d="m 412.06916,6.9258353 19.84375,6.6145827 h 26.81412 15.21835 39.51444 39.51443 15.20873 26.79481 l 19.84375,-6.6145827 c 0,8.4556047 -8.59894,-1.5725037 -7.93748,6.5228087 0.66146,8.095314 10.58334,34.314052 10.58334,42.769657 l -15.875,-36.063299 h -33.40942 -15.20873 -39.51443 -39.51444 -15.21835 -33.42868 l -15.875,36.063299 c 0,-8.455605 9.92188,-34.490795 10.58334,-42.586109 0.66145,-8.0953124 -7.93753,1.749248 -7.93753,-6.7063567 z"
         inkscape:path-effect="#path-effect1409" />
      <path
         id="path1405"
         style="fill:#ada67c;fill-opacity:0.996078;stroke:#000000;stroke-width:0.529167;stroke-linecap:round;stroke-linejoin:round;stroke-dasharray:none;stroke-opacity:1;paint-order:markers fill stroke"
         d="m 528.27927,25.773758 -7.25083,3.314571 a 6.1779933,6.1779933 122.71674 0 0 -3.6095,5.618756 v 95.532695 68.50897 a 6.177996,6.177996 57.283275 0 0 3.60949,5.61876 l 7.25085,3.31457 a 0.86411397,0.86411397 102.28328 0 1 -0.35926,1.65001 h -1.2818 -9.21931 -9.2193 -9.21931 a 0.94212982,0.94212982 76.645908 0 1 -0.42344,-1.78374 l 6.05635,-3.04711 a 6.5809466,6.5809466 122.19904 0 0 3.62193,-5.75175 l 1.16968,-60.57295 a 411.0911,411.0911 90.553127 0 0 0.0766,-7.93676 V 34.707085 a 6.1779826,6.1779826 57.283219 0 0 -3.6095,-5.61875 l -7.25089,-3.314583 a 0.86410988,0.86410988 102.28322 0 1 0.35925,-1.65 l 1.28181,0 h 9.2193 9.21931 9.2193 a 0.86411314,0.86411314 77.716736 0 1 0.35925,1.650006 z"
         sodipodi:nodetypes="ccccccccccccccccc"
         inkscape:label="BOTTOM"
         inkscape:original-d="m 531.88877,24.123752 -14.46983,6.614583 V 134.20853 202.7175 l 14.46983,6.61459 h -9.2193 -9.21931 -9.2193 -9.21931 l 13.14697,-6.61459 1.32292,-68.50897 V 30.738335 l -14.46989,-6.614583 h 9.21931 9.2193 9.21931 z"
         inkscape:path-effect="#path-effect1413" />
    </g>
    <g
       id="g1553"
       inkscape:label="t"
       transform="translate(-828.07172,-216.43413)"
       style="stroke-width:0.999067;stroke-dasharray:none">
      <path
         id="path1549"
         style="fill:#ffffff;fill-opacity:0.996078;stroke:#000000;stroke-width:0.999067;stroke-linecap:round;stroke-linejoin:round;stroke-dasharray:none;paint-order:markers fill stroke"
         d="m 390.18286,3.9312603 15.02419,6.8109707 a 12.24451,12.24451 12.193189 0 0 5.05561,1.092433 h 21.52246 39.51443 39.51444 39.51443 39.51444 26.79481 a 12.24451,12.24451 167.80681 0 0 5.05561,-1.092433 l 15.02419,-6.8109707 c 1.33089,-0.6033339 2.4054,0.092652 2.46185,1.5527236 0.44998,11.6395611 3.70669,23.2791271 5.45674,34.9186901 1.08525,7.21794 -1.02043,7.641682 -3.64323,0.82241 l -7.53037,-19.578969 a 3.8524128,3.8524128 34.481241 0 0 -3.59563,-2.469477 h -34.73231 -39.51444 -39.51443 -39.51444 -39.51443 -40.04329 a 3.8524117,3.8524117 145.51875 0 0 -3.59563,2.469477 l -7.53037,19.578967 c -2.62279,6.819273 -4.72846,6.395237 -3.64312,-0.823053 1.75011,-11.639565 5.00679,-23.279133 5.45667,-34.9186968 0.0564,-1.4597124 1.13093,-2.1554058 2.46182,-1.5520719 z"
         sodipodi:nodetypes="ccccccccccccccccccc"
         inkscape:label="TOP"
         inkscape:original-d="m 387.77308,2.8388277 19.84375,8.9958363 h 26.81412 39.51443 39.51444 39.51443 39.51444 26.79481 l 19.84375,-8.9958363 c 0,16.9112103 6.61458,33.8224303 6.61458,50.7336403 l -13.22917,-34.39583 h -40.02397 -39.51444 -39.51443 -39.51444 -39.51443 -40.04329 l -13.22916,34.39583 c 0,-16.91121 6.61458,-33.82243 6.61458,-50.7336403 z"
         inkscape:path-effect="#path-effect1557" />
      <path
         id="path1551"
         style="fill:#ffffff;fill-opacity:0.996078;stroke:#000000;stroke-width:0.999067;stroke-linecap:round;stroke-linejoin:round;stroke-dasharray:none;paint-order:markers fill stroke"
         d="m 529.2627,27.660891 -5.24897,5.947782 a 10.495048,10.495048 110.71434 0 0 -2.62607,6.944439 v 89.686668 56.87833 a 10.846415,10.846415 69.90221 0 0 2.56143,7.00026 l 5.37825,6.36531 a 1.8424185,1.8424185 114.90221 0 1 -1.40732,3.03151 h -1.2818 -9.21931 -9.2193 -9.21931 a 1.8424185,1.8424185 65.09779 0 1 -1.40732,-3.03151 l 5.37825,-6.36531 a 10.846415,10.846415 110.09779 0 0 2.56143,-7.00026 V 138.17728 40.553112 a 10.495048,10.495048 69.285662 0 0 -2.62607,-6.944439 l -5.24897,-5.947782 a 1.7907638,1.7907638 114.28566 0 1 1.34268,-2.975689 h 1.28181 9.2193 9.21931 9.2193 a 1.7907638,1.7907638 65.714338 0 1 1.34268,2.975689 z"
         sodipodi:nodetypes="ccccccccccccccccc"
         inkscape:label="BOTTOM"
         inkscape:original-d="m 531.88877,24.685202 -10.50111,11.89916 v 97.624168 56.87833 l 10.50111,12.42833 h -9.2193 -9.21931 -9.2193 -9.21931 l 10.50111,-12.42833 V 134.20853 36.584362 l -10.50111,-11.89916 h 9.21931 9.2193 9.21931 z"
         inkscape:path-effect="#path-effect1561" />
    </g>
  </g>
</svg>
